<svg width="80" height="80" viewBox="0 0 80 80" fill="none" xmlns="http://www.w3.org/2000/svg">
    <g clip-path="url(#clip0)">
        <path fill-rule="evenodd" clip-rule="evenodd" d="M39.7291 44.8538L30.1248 54.4581L26 50.3333L35.6043 40.7291L26 31.1248L30.1248 27L39.7291 36.6043L49.3333 27L53.4581 31.1248L43.8538 40.7291L53.4581 50.3333L49.3333 54.4581L39.7291 44.8538Z" fill="#D75555"/>
        <path fill-rule="evenodd" clip-rule="evenodd" d="M40 5.5C20.9462 5.5 5.5 20.9462 5.5 40C5.5 59.0538 20.9462 74.5 40 74.5C59.0538 74.5 74.5 59.0538 74.5 40C74.5 20.9462 59.0538 5.5 40 5.5ZM0.5 40C0.5 18.1848 18.1848 0.5 40 0.5C61.8152 0.5 79.5 18.1848 79.5 40C79.5 61.8152 61.8152 79.5 40 79.5C18.1848 79.5 0.5 61.8152 0.5 40Z" fill="#D75555"/>
    </g>
    <defs>
        <clipPath id="clip0">
            <rect x="0.5" y="0.5" width="79" height="79" fill="white"/>
        </clipPath>
    </defs>
</svg>